HIERARCHY
ROOT root
{
	OFFSET 0.000000 0.000000 0.000000
	CHANNELS 6 Xposition Yposition Zposition Zrotation Yrotation Xrotation
	JOINT lhip
	{
		OFFSET 0.058581 -0.082280 -0.017664
		CHANNELS 3 Zrotation Yrotation Xrotation
		JOINT lknee
		{
			OFFSET 0.043451 -0.386469 0.008037
			CHANNELS 3 Zrotation Yrotation Xrotation
			JOINT lankle
			{
				OFFSET -0.014790 -0.426874 -0.037428
				CHANNELS 3 Zrotation Yrotation Xrotation
				JOINT ltoe
				{
					OFFSET 0.041054 -0.060286 0.122042
					CHANNELS 3 Zrotation Yrotation Xrotation
					End Site
					{
						OFFSET 0.000000 0.000000 0.000000
					}
				}
			}
		}
	}
	JOINT rhip
	{
		OFFSET -0.060310 -0.090513 -0.013543
		CHANNELS 3 Zrotation Yrotation Xrotation
		JOINT rknee
		{
			OFFSET -0.043257 -0.383688 -0.004843
			CHANNELS 3 Zrotation Yrotation Xrotation
			JOINT rankle
			{
				OFFSET 0.019056 -0.420046 -0.034562
				CHANNELS 3 Zrotation Yrotation Xrotation
				JOINT rtoe
				{
					OFFSET -0.034840 -0.062106 0.130323
					CHANNELS 3 Zrotation Yrotation Xrotation
					End Site
					{
						OFFSET 0.000000 0.000000 0.000000
					}
				}
			}
		}
	}
	JOINT lowerback
	{
		OFFSET 0.004439 0.124404 -0.038385
		CHANNELS 3 Zrotation Yrotation Xrotation
		JOINT upperback
		{
			OFFSET 0.004488 0.137956 0.026820
			CHANNELS 3 Zrotation Yrotation Xrotation
			JOINT chest
			{
				OFFSET -0.002265 0.056032 0.002855
				CHANNELS 3 Zrotation Yrotation Xrotation
				JOINT lowerneck
				{
					OFFSET -0.013390 0.211636 -0.033468
					CHANNELS 3 Zrotation Yrotation Xrotation
					JOINT upperneck
					{
						OFFSET 0.010113 0.088937 0.050410
						CHANNELS 3 Zrotation Yrotation Xrotation
						End Site
						{
							OFFSET 0.000000 0.000000 0.000000
						}
					}
				}
				JOINT lclavicle
				{
					OFFSET 0.071702 0.114000 -0.018898
					CHANNELS 3 Zrotation Yrotation Xrotation
					JOINT lshoulder
					{
						OFFSET 0.122921 0.045205 -0.019046
						CHANNELS 3 Zrotation Yrotation Xrotation
						JOINT lelbow
						{
							OFFSET 0.255332 -0.015649 -0.022946
							CHANNELS 3 Zrotation Yrotation Xrotation
							JOINT lwrist
							{
								OFFSET 0.265709 0.012698 -0.007375
								CHANNELS 3 Zrotation Yrotation Xrotation
								End Site
								{
									OFFSET 0.000000 0.000000 0.000000
								}
							}
						}
					}
				}
				JOINT rclavicle
				{
					OFFSET -0.082954 0.112472 -0.023707
					CHANNELS 3 Zrotation Yrotation Xrotation
					JOINT rshoulder
					{
						OFFSET -0.113228 0.046853 -0.008472
						CHANNELS 3 Zrotation Yrotation Xrotation
						JOINT relbow
						{
							OFFSET -0.260127 -0.014369 -0.031269
							CHANNELS 3 Zrotation Yrotation Xrotation
							JOINT rwrist
							{
								OFFSET -0.269108 0.006794 -0.006027
								CHANNELS 3 Zrotation Yrotation Xrotation
								End Site
								{
									OFFSET 0.000000 0.000000 0.000000
								}
							}
						}
					}
				}
			}
		}
	}
}
MOTION
Frames: 7
Frame Time: 0.033333
-0.140055 0.190572 0.961267 123.284397 -26.673730 132.124577 11.564212 4.875223 -12.272417 -5.997074 -15.505538 18.454589 -17.744257 4.183662 14.334044 0.000000 -0.000000 0.000000 -19.910274 -19.333810 -64.573524 1.485068 -17.312426 26.693822 6.228719 -10.364177 -4.380993 0.000000 -0.000000 0.000000 23.042156 -12.247601 57.204570 -3.004046 15.097228 2.825058 4.091221 -1.401197 3.213038 5.624873 -30.890603 -9.592632 6.667850 -3.971152 -14.256496 -22.082748 -21.713474 6.357757 -60.840684 -10.538451 27.453080 -2.931213 -57.008686 17.882974 42.216284 -9.799921 -20.490397 -12.106689 26.879909 -9.643751 -25.898738 6.701800 -29.747068 6.336491 10.209370 -18.606586 -23.232290 18.366679 28.351578 
-0.138411 0.189875 0.963683 122.937804 -27.363734 133.111449 12.074136 5.464561 -11.107583 -5.994851 -15.285789 18.980756 -17.293479 4.799348 13.510880 0.000000 -0.000000 0.000000 -20.540086 -19.632554 -64.733971 1.668654 -17.332262 26.075326 6.604397 -10.149838 -4.305379 0.000000 -0.000000 0.000000 22.968588 -12.344184 57.219438 -3.185230 15.342578 2.587502 4.145854 -0.792405 3.052995 6.098006 -31.534518 -9.214933 6.955030 -3.964151 -15.397775 -22.444069 -22.244320 7.355223 -60.556313 -10.953474 27.317404 -2.733687 -56.427832 17.204732 42.148621 -9.586391 -20.294836 -11.949647 26.921905 -9.478426 -26.694816 5.800153 -29.586047 6.866009 9.856856 -17.597537 -23.069346 18.936934 28.939330 
-0.137329 0.189338 0.966389 122.624920 -27.869464 133.802208 12.428083 5.937087 -10.071136 -6.043669 -15.342601 19.524023 -17.111963 4.762164 13.454978 0.000000 -0.000000 0.000000 -20.893087 -19.780346 -64.583205 1.668579 -17.334763 25.172709 6.704603 -9.709384 -4.167398 0.000000 -0.000000 0.000000 22.851149 -12.330898 57.234800 -3.373269 15.401246 2.260596 4.271505 -0.209618 2.931550 6.267773 -32.171008 -8.413142 7.402261 -3.768405 -16.738015 -22.652482 -22.788903 8.110274 -60.474593 -11.150655 27.136710 -2.174550 -55.772855 16.558690 41.558246 -9.092116 -20.591474 -11.747520 26.853956 -9.204395 -26.293393 5.262560 -29.263163 6.628148 10.264123 -16.576585 -23.350064 19.051137 29.327651 
-0.136622 0.188794 0.969230 122.378702 -28.133207 134.179540 12.686926 6.236167 -9.206990 -6.256440 -15.553971 20.224299 -17.374933 4.507882 13.488396 0.000000 -0.000000 0.000000 -21.137173 -19.587256 -64.132116 1.614505 -17.180372 24.100730 6.729595 -9.474539 -4.016226 0.000000 -0.000000 0.000000 22.556391 -12.122522 57.188509 -3.391257 15.292736 2.062174 4.450622 0.490525 2.680952 6.085593 -32.366681 -7.402874 7.793948 -3.645615 -17.734938 -23.061096 -23.276146 8.928118 -60.075099 -11.211509 26.899420 -1.783026 -55.376235 15.918034 41.014548 -9.075574 -20.971107 -10.894341 27.119706 -8.809085 -25.670170 4.762768 -28.778599 6.098605 11.058109 -16.024252 -23.424155 19.015297 28.726786 
-0.136391 0.188182 0.972187 122.308323 -28.175275 134.078411 12.786524 6.629470 -8.559262 -6.272296 -15.744169 21.261698 -18.001497 4.285044 13.868452 0.000000 -0.000000 0.000000 -21.067782 -19.181297 -63.528491 1.293098 -17.103125 23.224331 6.430920 -9.465819 -3.651462 0.000000 -0.000000 0.000000 22.066415 -11.901442 57.214419 -3.284312 15.148801 1.892297 4.726596 1.181860 2.424375 5.838986 -32.700851 -6.436668 8.078282 -3.560395 -18.240405 -23.454972 -23.370908 9.238663 -59.678986 -11.112594 26.893615 -1.616676 -55.191821 15.187801 39.918357 -8.675509 -21.258431 -9.741942 27.450803 -8.525272 -24.945003 4.708140 -28.094402 5.689699 11.816259 -16.745133 -22.042250 17.662457 27.180168 
-0.136443 0.187662 0.975232 122.316441 -28.035203 133.640892 12.700415 6.712614 -8.055594 -6.419232 -16.083685 22.148535 -17.885259 3.774167 14.001172 0.000000 -0.000000 0.000000 -20.918403 -18.342722 -62.602965 0.841599 -16.586915 22.130224 6.029624 -10.043685 -3.268553 0.000000 -0.000000 0.000000 21.406842 -11.677972 57.184307 -3.144402 14.926482 1.686726 5.020711 1.786799 2.179892 5.287929 -33.079471 -5.511762 8.240873 -3.148775 -18.490218 -23.899989 -23.394686 9.623113 -59.261795 -10.854262 26.913321 -1.222628 -55.101855 14.050556 38.502288 -8.384649 -21.497149 -8.654479 27.939748 -8.276468 -23.569156 4.750888 -27.081073 5.638178 12.553501 -18.823334 -18.374344 14.594863 24.030904 
-0.136605 0.187238 0.977917 122.478446 -27.811175 132.723350 12.388753 6.747473 -7.653113 -6.505594 -16.250215 23.005976 -17.845427 3.448820 14.365691 0.000000 -0.000000 0.000000 -20.812730 -17.640600 -61.365430 0.650755 -16.140833 21.314807 5.794345 -10.298564 -2.909285 0.000000 -0.000000 0.000000 20.700491 -11.432603 57.245660 -3.003446 14.569192 1.396294 5.276903 2.308527 1.977154 4.797191 -33.169470 -4.847526 8.531831 -2.883949 -18.365319 -23.987562 -23.219030 9.654612 -58.979382 -10.603502 27.010978 -1.091652 -55.063126 12.718800 36.739715 -7.952395 -22.874898 -7.459084 28.237018 -8.128801 -21.337815 5.059230 -25.726153 5.686844 13.476777 -21.571330 -14.635851 11.603399 19.724072 
